<svg id="noun_cart_2102832_4_" data-name="noun_cart_2102832 (4)" xmlns="http://www.w3.org/2000/svg" width="26.402" height="26.403" viewBox="0 0 26.402 26.403">
  <path id="Path_5" data-name="Path 5" d="M7.1,8.2H8.938l2.754,12.427a3.948,3.948,0,0,0-2.246,3.651A3.76,3.76,0,0,0,13,28.208H27.587a1.1,1.1,0,0,0,0-2.2H13a1.6,1.6,0,0,1-1.354-1.73A1.6,1.6,0,0,1,13,22.548H27.587a1.1,1.1,0,0,0,1.035-.727l3.715-10.31A1.1,1.1,0,0,0,31.3,10.038H11.6l-.7-3.176A1.1,1.1,0,0,0,9.821,6H7.1a1.1,1.1,0,0,0,0,2.2Zm22.636,4.038-2.922,8.11H13.883l-1.8-8.11H29.736Z" transform="translate(-6 -6)"/>
  <path id="Path_6" data-name="Path 6" d="M19.445,50a1.1,1.1,0,0,0,0,2.2h1.4a1.1,1.1,0,0,0,0-2.2Z" transform="translate(-11.554 -25.798)"/>
  <path id="Path_7" data-name="Path 7" d="M37.9,50a1.1,1.1,0,0,0,0,2.2h1.4a1.1,1.1,0,0,0,0-2.2Z" transform="translate(-19.857 -25.798)"/>
</svg>
