<svg id="Слой_2" data-name="Слой 2" xmlns="http://www.w3.org/2000/svg" width="28.98" height="20.567" viewBox="0 0 28.98 20.567">
  <g id="Слой_1" data-name="Слой 1" transform="translate(0)">
    <path id="Path_209" data-name="Path 209" d="M9.376,0A4.845,4.845,0,0,0,4.662,3.745H1.113a1.113,1.113,0,1,0,0,2.226H4.662a4.845,4.845,0,0,0,9.429,0H27.867a1.113,1.113,0,1,0,0-2.226H14.09A4.845,4.845,0,0,0,9.376,0Zm0,7.49A2.619,2.619,0,1,1,12,4.871,2.619,2.619,0,0,1,9.376,7.49Z" transform="translate(0)"/>
    <path id="Path_210" data-name="Path 210" d="M19.643,8.3a4.845,4.845,0,0,0-4.714,3.745H1.113a1.113,1.113,0,0,0,0,2.226H14.889a4.845,4.845,0,0,0,9.429,0h3.549a1.113,1.113,0,0,0,0-2.226H24.318A4.845,4.845,0,0,0,19.643,8.3Zm0,7.464a2.619,2.619,0,1,1,2.619-2.619A2.619,2.619,0,0,1,19.643,15.764Z" transform="translate(0 2.569)"/>
  </g>
</svg>
