<svg xmlns="http://www.w3.org/2000/svg" width="118" height="19" viewBox="0 0 118 19">
  <g id="name" transform="translate(-156 -136)">
    <text id="All_products" data-name="All products" transform="translate(196 150)" fill="#b2b2b2" font-size="13" font-family="Poppins-Regular, Poppins"><tspan x="0" y="0">All products</tspan></text>
    <rect id="Rectangle_461" data-name="Rectangle 461" width="1" height="17" transform="matrix(0.966, 0.259, -0.259, 0.966, 187.217, 137.16)" fill="#e2e2e2"/>
    <path id="noun_Home_2102808" d="M7.028,12.906l.327-.276v7.745A.625.625,0,0,0,7.98,21H19.02a.625.625,0,0,0,.625-.625V12.63l.327.276a.625.625,0,0,0,.806-.955l-3-2.533V7.039a.625.625,0,1,0-1.25,0V8.363L13.9,6.147a.625.625,0,0,0-.806,0l-6.875,5.8a.625.625,0,1,0,.806.955ZM12.1,19.75V15.238H14.9V19.75ZM13.5,7.443l4.895,4.132V19.75H16.147V14.613a.625.625,0,0,0-.625-.625H11.478a.625.625,0,0,0-.625.625V19.75H8.605V11.575Z" transform="translate(150 131)" fill="#b2b2b2"/>
  </g>
</svg>
